<svg xmlns="http://www.w3.org/2000/svg" viewBox="0 0 140 48" width="140" height="48">
  <rect width="140" height="48" rx="6" fill="#000000"/>
  <!-- Apple icon (simplified path) -->
  <path d="M28 14c1.5-1.8 2.5-4.3 2.2-6.8-2.1.1-4.7 1.4-6.2 3.2-1.4 1.6-2.6 4.2-2.2 6.6 2.3.2 4.7-1.1 6.2-3z" fill="#FFFFFF"/>
  <path d="M30.2 17.2c-3.4-.2-6.3 1.9-7.9 1.9-1.6 0-4.1-1.8-6.8-1.8-3.5.1-6.7 2-8.5 5.2-3.6 6.3-.9 15.6 2.6 20.7 1.7 2.5 3.8 5.3 6.5 5.2 2.6-.1 3.6-1.7 6.7-1.7 3.1 0 4 1.7 6.8 1.6 2.8-.1 4.7-2.5 6.4-5 2-2.9 2.8-5.7 2.9-5.8-.1 0-5.5-2.1-5.6-8.4-.1-5.2 4.3-7.7 4.5-7.8-2.5-3.7-6.3-4.1-7.6-4.1z" fill="#FFFFFF" transform="scale(0.42) translate(25, -8)"/>
  <text x="93" y="31" font-family="Arial,Helvetica,sans-serif" font-size="20" font-weight="400" letter-spacing="-0.5" fill="#FFFFFF" text-anchor="middle">Pay</text>
</svg>
