<?xml version="1.0" encoding="UTF-8" standalone="no"?>
<!DOCTYPE svg PUBLIC "-//W3C//DTD SVG 1.1//EN" "http://www.w3.org/Graphics/SVG/1.1/DTD/svg11.dtd">
<svg width="100%" height="100%" viewBox="0 0 1469 432" version="1.1" xmlns="http://www.w3.org/2000/svg" xmlns:xlink="http://www.w3.org/1999/xlink" xml:space="preserve" xmlns:serif="http://www.serif.com/" style="fill-rule:evenodd;clip-rule:evenodd;stroke-linejoin:round;stroke-miterlimit:2;">
    <g transform="matrix(2.08333,0,0,2.08333,-6945.46,-2144.8)">
        <g transform="matrix(1.02057,0,0,1.02057,-75.8911,-23.7726)">
            <g transform="matrix(2.04268,0,0,0.980486,3318.04,789.546)">
                <g transform="matrix(0.0234599,0,0,0.0488748,-17.8606,453.474)">
                    <path d="M5896.87,-3040.75C6139.66,-3040.75 6286.57,-3142.76 6388.58,-3293.75L6129.46,-3481.45C6068.25,-3410.04 6009.08,-3367.2 5917.27,-3367.2C5786.69,-3367.2 5696.91,-3475.33 5696.91,-3618.16L5696.91,-3622.24C5696.91,-3756.9 5788.73,-3867.07 5913.19,-3867.07C6007.04,-3867.07 6066.21,-3824.23 6119.26,-3750.78L6382.46,-3946.65C6288.61,-4095.59 6137.62,-4193.52 5911.15,-4193.52C5562.25,-4193.52 5319.46,-3930.32 5319.46,-3618.16L5319.46,-3614.08C5319.46,-3301.91 5564.3,-3040.75 5896.87,-3040.75Z" style="fill:white;fill-rule:nonzero;"/>
                </g>
                <g transform="matrix(0.0234599,0,0,0.0488748,-17.8606,453.474)">
                    <path d="M7037.4,-3040.75C7392.41,-3040.75 7649.49,-3303.95 7649.49,-3618.16L7649.49,-3622.24C7649.49,-3936.45 7394.45,-4195.56 7041.48,-4195.56C6686.47,-4195.56 6429.39,-3932.36 6429.39,-3618.16L6429.39,-3614.08C6429.39,-3299.87 6684.43,-3040.75 7037.4,-3040.75ZM7041.48,-3369.24C6904.78,-3369.24 6806.85,-3483.49 6806.85,-3618.16L6806.85,-3622.24C6806.85,-3754.86 6896.62,-3867.07 7037.4,-3867.07C7174.1,-3867.07 7272.04,-3752.82 7272.04,-3618.16L7272.04,-3614.08C7272.04,-3481.45 7182.26,-3369.24 7041.48,-3369.24Z" style="fill:white;fill-rule:nonzero;"/>
                </g>
                <g transform="matrix(0.0234599,0,0,0.0488748,-17.8606,453.474)">
                    <path d="M7792.32,-3067.27L8179.98,-3067.27L8179.98,-3667.12C8179.98,-3787.5 8245.26,-3850.75 8337.08,-3850.75C8428.89,-3850.75 8488.06,-3787.5 8488.06,-3667.12L8488.06,-3067.27L8875.72,-3067.27L8875.72,-3667.12C8875.72,-3787.5 8943.05,-3850.75 9034.87,-3850.75C9126.68,-3850.75 9185.85,-3787.5 9185.85,-3667.12L9185.85,-3067.27L9573.51,-3067.27L9573.51,-3791.58C9573.51,-4048.66 9430.69,-4195.56 9196.05,-4195.56C9034.87,-4195.56 8922.65,-4126.19 8826.75,-4016.02C8767.59,-4130.27 8655.37,-4195.56 8508.47,-4195.56C8353.4,-4195.56 8251.39,-4111.91 8179.98,-4020.1L8179.98,-4171.08L7792.32,-4171.08L7792.32,-3067.27Z" style="fill:white;fill-rule:nonzero;"/>
                </g>
                <g transform="matrix(0.0234599,0,0,0.0488748,-17.8606,453.474)">
                    <path d="M9753.06,-2740.82L10140.7,-2740.82L10140.7,-3201.93C10212.1,-3118.28 10310.1,-3042.79 10477.4,-3042.79C10738.5,-3042.79 10965,-3261.1 10965,-3620.2L10965,-3624.28C10965,-3977.25 10738.5,-4195.56 10475.3,-4195.56C10310.1,-4195.56 10216.2,-4115.99 10140.7,-4024.18L10140.7,-4171.08L9753.06,-4171.08L9753.06,-2740.82ZM10357,-3367.2C10232.5,-3367.2 10132.6,-3471.25 10132.6,-3618.16L10132.6,-3622.24C10132.6,-3767.1 10232.5,-3871.16 10357,-3871.16C10483.5,-3871.16 10583.5,-3767.1 10583.5,-3622.24L10583.5,-3618.16C10583.5,-3469.21 10483.5,-3367.2 10357,-3367.2Z" style="fill:white;fill-rule:nonzero;"/>
                </g>
                <g transform="matrix(0.0234599,0,0,0.0488748,-17.8606,453.474)">
                    <path d="M11658.7,-3040.75C11879.1,-3040.75 12032.1,-3130.52 12138.2,-3265.18L11923.9,-3442.69C11844.4,-3365.16 11770.9,-3330.47 11679.1,-3330.47C11558.7,-3330.47 11471,-3391.68 11440.4,-3512.06L12179,-3512.06C12181,-3538.58 12181,-3567.15 12181,-3591.63C12181,-3916.04 12005.6,-4195.56 11624,-4195.56C11297.6,-4195.56 11067,-3940.53 11067,-3618.16L11067,-3614.08C11067,-3271.3 11311.9,-3040.75 11658.7,-3040.75ZM11434.3,-3709.97C11454.7,-3830.35 11524,-3909.92 11626.1,-3909.92C11732.2,-3909.92 11803.6,-3832.39 11817.9,-3709.97L11434.3,-3709.97Z" style="fill:white;fill-rule:nonzero;"/>
                </g>
                <g transform="matrix(0.0234599,0,0,0.0488748,-17.8606,453.474)">
                    <path d="M12325.9,-3067.27L12713.5,-3067.27L12713.5,-3665.08C12713.5,-3785.46 12782.9,-3850.75 12876.8,-3850.75C12968.6,-3850.75 13031.8,-3785.46 13031.8,-3665.08L13031.8,-3067.27L13419.5,-3067.27L13419.5,-3789.54C13419.5,-4040.5 13278.7,-4195.56 13044.1,-4195.56C12887,-4195.56 12785,-4107.83 12713.5,-4016.02L12713.5,-4171.08L12325.9,-4171.08L12325.9,-3067.27Z" style="fill:white;fill-rule:nonzero;"/>
                </g>
                <g transform="matrix(0.0234599,0,0,0.0488748,-17.8606,453.474)">
                    <path d="M14037.7,-3042.79C14307,-3042.79 14488.6,-3169.29 14488.6,-3412.08L14488.6,-3416.16C14488.6,-3630.4 14315.2,-3705.89 14096.9,-3767.1C13980.6,-3801.78 13917.3,-3822.19 13917.3,-3865.03L13917.3,-3869.11C13917.3,-3899.72 13947.9,-3922.16 14007.1,-3922.16C14094.8,-3922.16 14219.3,-3883.4 14333.6,-3820.15L14466.2,-4064.98C14339.7,-4146.6 14172.4,-4193.52 14011.2,-4193.52C13756.1,-4193.52 13568.4,-4062.94 13568.4,-3828.31L13568.4,-3824.23C13568.4,-3601.83 13741.9,-3528.38 13960.2,-3471.25C14076.5,-3438.61 14137.7,-3420.25 14137.7,-3377.4L14137.7,-3373.32C14137.7,-3334.55 14107.1,-3314.15 14039.8,-3314.15C13925.5,-3314.15 13786.8,-3357 13660.3,-3440.65L13515.4,-3206.01C13668.4,-3095.84 13852,-3042.79 14037.7,-3042.79Z" style="fill:white;fill-rule:nonzero;"/>
                </g>
                <g transform="matrix(0.0234599,0,0,0.0488748,-17.8606,453.474)">
                    <path d="M14943.6,-3042.79C15088.5,-3042.79 15192.5,-3097.88 15268,-3181.53L15268,-3067.27L15651.6,-3067.27L15651.6,-3701.81C15651.6,-3856.87 15616.9,-3971.13 15533.3,-4052.74C15445.5,-4140.48 15310.9,-4187.4 15113,-4187.4C14923.2,-4187.4 14790.6,-4152.72 14666.1,-4101.71L14745.7,-3828.31C14843.6,-3867.07 14933.4,-3889.52 15049.7,-3889.52C15198.6,-3889.52 15270.1,-3824.23 15270.1,-3709.97L15270.1,-3691.61C15206.8,-3714.05 15106.8,-3734.45 15004.8,-3734.45C14745.7,-3734.45 14572.3,-3616.12 14572.3,-3387.6L14572.3,-3383.52C14572.3,-3163.17 14733.5,-3042.79 14943.6,-3042.79ZM15082.4,-3285.59C15002.8,-3285.59 14945.7,-3330.47 14945.7,-3405.96L14945.7,-3410.04C14945.7,-3491.66 15010.9,-3546.74 15123.2,-3546.74C15180.3,-3546.74 15235.4,-3534.5 15274.1,-3518.18L15274.1,-3467.17C15274.1,-3357 15194.6,-3285.59 15082.4,-3285.59Z" style="fill:white;fill-rule:nonzero;"/>
                </g>
            </g>
            <g transform="matrix(0.0473768,0,0,0.0473768,3284.44,1242.04)">
                <path d="M6020.1,-587.476C6171.49,-587.476 6300.03,-621.753 6397.15,-676.025L6397.15,-1101.63C6331.45,-1070.21 6262.9,-1050.22 6191.49,-1050.22C6091.51,-1050.22 6042.95,-1095.92 6042.95,-1204.47L6042.95,-1727.19L6402.86,-1727.19L6402.86,-2164.23L6042.95,-2164.23L6042.95,-2555.56L5500.23,-2555.56L5500.23,-2164.23L5317.42,-2164.23L5317.42,-1727.19L5500.23,-1727.19L5500.23,-1098.78C5500.23,-730.298 5694.47,-587.476 6020.1,-587.476Z" style="fill:white;fill-rule:nonzero;"/>
            </g>
            <g transform="matrix(0.0473768,0,0,0.0473768,3284.44,1242.04)">
                <path d="M7122.69,-584.619C7342.63,-584.619 7485.45,-701.733 7585.43,-830.273L7585.43,-618.897L8128.15,-618.897L8128.15,-2164.23L7585.43,-2164.23L7585.43,-1327.29C7585.43,-1158.76 7488.31,-1067.36 7359.77,-1067.36C7228.37,-1067.36 7139.82,-1158.76 7139.82,-1327.29L7139.82,-2164.23L6597.1,-2164.23L6597.1,-1153.05C6597.1,-801.709 6794.19,-584.619 7122.69,-584.619Z" style="fill:white;fill-rule:nonzero;"/>
            </g>
            <g transform="matrix(0.0473768,0,0,0.0473768,3284.44,1242.04)">
                <path d="M9653.49,-607.471L10147.7,-607.471L10764.6,-2164.23L10201.9,-2164.23L9904.85,-1261.6L9607.79,-2164.23L9036.5,-2164.23L9653.49,-607.471Z" style="fill:white;fill-rule:nonzero;"/>
            </g>
            <g transform="matrix(0.0473768,0,0,0.0473768,3284.44,1242.04)">
                <rect x="10921.7" y="-2164.23" width="542.723" height="1545.33" style="fill:white;fill-rule:nonzero;"/>
            </g>
            <g transform="matrix(0.0473768,0,0,0.0473768,3284.44,1242.04)">
                <path d="M12181.4,-584.619C12384.2,-584.619 12529.9,-661.743 12635.6,-778.857L12635.6,-618.897L13172.6,-618.897L13172.6,-1507.25C13172.6,-1724.34 13124.1,-1884.3 13006.9,-1998.56C12884.1,-2121.38 12695.6,-2187.08 12418.5,-2187.08C12152.9,-2187.08 11967.2,-2138.52 11793,-2067.11L11904.4,-1684.35C12041.5,-1738.62 12167.2,-1770.04 12330,-1770.04C12538.5,-1770.04 12638.5,-1678.63 12638.5,-1518.67L12638.5,-1492.97C12549.9,-1524.39 12410,-1552.95 12267.1,-1552.95C11904.4,-1552.95 11661.6,-1387.28 11661.6,-1067.36L11661.6,-1061.64C11661.6,-753.149 11887.2,-584.619 12181.4,-584.619ZM12375.7,-924.535C12264.3,-924.535 12184.3,-987.377 12184.3,-1093.07L12184.3,-1098.78C12184.3,-1213.04 12275.7,-1290.16 12432.8,-1290.16C12512.8,-1290.16 12589.9,-1273.02 12644.2,-1250.17L12644.2,-1178.76C12644.2,-1024.51 12532.8,-924.535 12375.7,-924.535Z" style="fill:white;fill-rule:nonzero;"/>
            </g>
            <g transform="matrix(0.0473768,0,0,0.0473768,3284.44,1242.04)">
                <path d="M13424,-153.297C13775.3,-153.297 13975.3,-296.119 13975.3,-687.451L13975.3,-2164.23L13432.6,-2164.23L13432.6,-710.303C13432.6,-576.05 13378.3,-530.347 13272.6,-530.347C13249.7,-530.347 13224,-530.347 13201.2,-533.204L13201.2,-173.292C13266.9,-164.723 13338.3,-153.297 13424,-153.297Z" style="fill:white;fill-rule:nonzero;"/>
            </g>
            <g transform="matrix(0.0473768,0,0,0.0473768,3284.44,1242.04)">
                <path d="M15020.7,-581.763C15329.2,-581.763 15543.5,-707.446 15692,-895.971L15392.1,-1144.48C15280.7,-1035.94 15177.8,-987.377 15049.3,-987.377C14880.8,-987.377 14757.9,-1073.07 14715.1,-1241.6L15749.1,-1241.6C15752,-1278.73 15752,-1318.72 15752,-1353C15752,-1807.17 15506.3,-2198.51 14972.2,-2198.51C14515.1,-2198.51 14192.4,-1841.45 14192.4,-1390.13L14192.4,-1384.42C14192.4,-904.54 14535.1,-581.763 15020.7,-581.763ZM14706.5,-1518.67C14735.1,-1687.2 14832.2,-1798.61 14975,-1798.61C15123.6,-1798.61 15223.5,-1690.06 15243.5,-1518.67L14706.5,-1518.67Z" style="fill:white;fill-rule:nonzero;"/>
            </g>
            <g transform="matrix(1.65349,0,0,1.80051,571.049,636.426)">
                <rect x="1953.57" y="264.172" width="16.261" height="11.523" style="fill:rgb(0,176,2);"/>
            </g>
            <g transform="matrix(1.65349,0,0,1.80051,689.918,636.426)">
                <rect x="1953.57" y="264.172" width="16.261" height="11.523" style="fill:rgb(0,176,2);"/>
            </g>
            <g transform="matrix(2.52498,-4.07556e-17,-4.04159e-15,1.21199,3159.62,728.159)">
                <g transform="matrix(1.1509,-7.39557e-32,6.16298e-33,1.1188,18.5001,-129.939)">
                    <path d="M91.846,409.538C85.155,408.125 78.761,404.953 74.702,397.873L48.743,345.398C47.599,342.007 47.838,340.227 49.627,340.255L70.002,344.925C75.074,346.75 79.855,351.966 84.209,362.167L105.474,410.172L84.209,456.752C79.855,466.953 75.074,472.169 70.002,473.994L49.688,478.65C47.552,479.428 47.17,477.927 48.234,474.55L74.702,421.046C79.727,412.288 85.662,410.101 91.846,409.538Z" style="fill:rgb(0,176,2);"/>
                </g>
                <g transform="matrix(1.1509,-7.39557e-32,6.16298e-33,1.1188,18.5001,-129.939)">
                    <path d="M67.987,410.635L55.997,407.784C53.502,407.302 51.811,405.239 50.668,402.099L46.68,389.248C46.118,387.33 46.276,386.48 47.249,386.84L60.717,391.874L67.987,410.635Z" style="fill:rgb(0,176,2);"/>
                </g>
                <g transform="matrix(1.1509,-7.39557e-32,6.16298e-33,1.1188,18.5001,-129.939)">
                    <path d="M67.987,410.679L60.717,429.44L47.114,434.524C46.329,434.766 46.154,434.082 46.522,432.574L50.668,419.215C51.811,416.076 53.502,414.012 55.997,413.53L67.987,410.679Z" style="fill:rgb(0,176,2);"/>
                </g>
            </g>
        </g>
    </g>
</svg>
