<?xml version="1.0" encoding="UTF-8" standalone="no"?>
<!DOCTYPE svg PUBLIC "-//W3C//DTD SVG 1.1//EN" "http://www.w3.org/Graphics/SVG/1.1/DTD/svg11.dtd">
<svg width="100%" height="100%" viewBox="0 0 1459 522" version="1.1" xmlns="http://www.w3.org/2000/svg" xmlns:xlink="http://www.w3.org/1999/xlink" xml:space="preserve" xmlns:serif="http://www.serif.com/" style="fill-rule:evenodd;clip-rule:evenodd;stroke-linejoin:round;stroke-miterlimit:2;">
    <g transform="matrix(2.08333,0,0,2.08333,-6957,-2147.07)">
        <g transform="matrix(1.02057,0,0,1.02057,-75.8911,-23.7726)">
            <g transform="matrix(2.04268,0,0,0.980486,3318.04,789.546)">
                <g transform="matrix(0.0234599,0,0,0.0488748,-17.8606,453.474)">
                    <path d="M5896.87,-3040.75C6139.66,-3040.75 6286.57,-3142.76 6388.58,-3293.75L6129.46,-3481.45C6068.25,-3410.04 6009.08,-3367.2 5917.27,-3367.2C5786.69,-3367.2 5696.91,-3475.33 5696.91,-3618.16L5696.91,-3622.24C5696.91,-3756.9 5788.73,-3867.07 5913.19,-3867.07C6007.04,-3867.07 6066.21,-3824.23 6119.26,-3750.78L6382.46,-3946.65C6288.61,-4095.59 6137.62,-4193.52 5911.15,-4193.52C5562.25,-4193.52 5319.46,-3930.32 5319.46,-3618.16L5319.46,-3614.08C5319.46,-3301.91 5564.3,-3040.75 5896.87,-3040.75Z" style="fill:rgb(1,66,67);fill-rule:nonzero;"/>
                </g>
                <g transform="matrix(0.0234599,0,0,0.0488748,-17.8606,453.474)">
                    <path d="M7037.4,-3040.75C7392.41,-3040.75 7649.49,-3303.95 7649.49,-3618.16L7649.49,-3622.24C7649.49,-3936.45 7394.45,-4195.56 7041.48,-4195.56C6686.47,-4195.56 6429.39,-3932.36 6429.39,-3618.16L6429.39,-3614.08C6429.39,-3299.87 6684.43,-3040.75 7037.4,-3040.75ZM7041.48,-3369.24C6904.78,-3369.24 6806.85,-3483.49 6806.85,-3618.16L6806.85,-3622.24C6806.85,-3754.86 6896.62,-3867.07 7037.4,-3867.07C7174.1,-3867.07 7272.04,-3752.82 7272.04,-3618.16L7272.04,-3614.08C7272.04,-3481.45 7182.26,-3369.24 7041.48,-3369.24Z" style="fill:rgb(1,66,67);fill-rule:nonzero;"/>
                </g>
                <g transform="matrix(0.0234599,0,0,0.0488748,-17.8606,453.474)">
                    <path d="M7792.32,-3067.27L8179.98,-3067.27L8179.98,-3667.12C8179.98,-3787.5 8245.26,-3850.75 8337.08,-3850.75C8428.89,-3850.75 8488.06,-3787.5 8488.06,-3667.12L8488.06,-3067.27L8875.72,-3067.27L8875.72,-3667.12C8875.72,-3787.5 8943.05,-3850.75 9034.87,-3850.75C9126.68,-3850.75 9185.85,-3787.5 9185.85,-3667.12L9185.85,-3067.27L9573.51,-3067.27L9573.51,-3791.58C9573.51,-4048.66 9430.69,-4195.56 9196.05,-4195.56C9034.87,-4195.56 8922.65,-4126.19 8826.75,-4016.02C8767.59,-4130.27 8655.37,-4195.56 8508.47,-4195.56C8353.4,-4195.56 8251.39,-4111.91 8179.98,-4020.1L8179.98,-4171.08L7792.32,-4171.08L7792.32,-3067.27Z" style="fill:rgb(1,66,67);fill-rule:nonzero;"/>
                </g>
                <g transform="matrix(0.0234599,0,0,0.0488748,-17.8606,453.474)">
                    <path d="M9753.06,-2740.82L10140.7,-2740.82L10140.7,-3201.93C10212.1,-3118.28 10310.1,-3042.79 10477.4,-3042.79C10738.5,-3042.79 10965,-3261.1 10965,-3620.2L10965,-3624.28C10965,-3977.25 10738.5,-4195.56 10475.3,-4195.56C10310.1,-4195.56 10216.2,-4115.99 10140.7,-4024.18L10140.7,-4171.08L9753.06,-4171.08L9753.06,-2740.82ZM10357,-3367.2C10232.5,-3367.2 10132.6,-3471.25 10132.6,-3618.16L10132.6,-3622.24C10132.6,-3767.1 10232.5,-3871.16 10357,-3871.16C10483.5,-3871.16 10583.5,-3767.1 10583.5,-3622.24L10583.5,-3618.16C10583.5,-3469.21 10483.5,-3367.2 10357,-3367.2Z" style="fill:rgb(1,66,67);fill-rule:nonzero;"/>
                </g>
                <g transform="matrix(0.0234599,0,0,0.0488748,-17.8606,453.474)">
                    <path d="M11658.7,-3040.75C11879.1,-3040.75 12032.1,-3130.52 12138.2,-3265.18L11923.9,-3442.69C11844.4,-3365.16 11770.9,-3330.47 11679.1,-3330.47C11558.7,-3330.47 11471,-3391.68 11440.4,-3512.06L12179,-3512.06C12181,-3538.58 12181,-3567.15 12181,-3591.63C12181,-3916.04 12005.6,-4195.56 11624,-4195.56C11297.6,-4195.56 11067,-3940.53 11067,-3618.16L11067,-3614.08C11067,-3271.3 11311.9,-3040.75 11658.7,-3040.75ZM11434.3,-3709.97C11454.7,-3830.35 11524,-3909.92 11626.1,-3909.92C11732.2,-3909.92 11803.6,-3832.39 11817.9,-3709.97L11434.3,-3709.97Z" style="fill:rgb(1,66,67);fill-rule:nonzero;"/>
                </g>
                <g transform="matrix(0.0234599,0,0,0.0488748,-17.8606,453.474)">
                    <path d="M12325.9,-3067.27L12713.5,-3067.27L12713.5,-3665.08C12713.5,-3785.46 12782.9,-3850.75 12876.8,-3850.75C12968.6,-3850.75 13031.8,-3785.46 13031.8,-3665.08L13031.8,-3067.27L13419.5,-3067.27L13419.5,-3789.54C13419.5,-4040.5 13278.7,-4195.56 13044.1,-4195.56C12887,-4195.56 12785,-4107.83 12713.5,-4016.02L12713.5,-4171.08L12325.9,-4171.08L12325.9,-3067.27Z" style="fill:rgb(1,66,67);fill-rule:nonzero;"/>
                </g>
                <g transform="matrix(0.0234599,0,0,0.0488748,-17.8606,453.474)">
                    <path d="M14037.7,-3042.79C14307,-3042.79 14488.6,-3169.29 14488.6,-3412.08L14488.6,-3416.16C14488.6,-3630.4 14315.2,-3705.89 14096.9,-3767.1C13980.6,-3801.78 13917.3,-3822.19 13917.3,-3865.03L13917.3,-3869.11C13917.3,-3899.72 13947.9,-3922.16 14007.1,-3922.16C14094.8,-3922.16 14219.3,-3883.4 14333.6,-3820.15L14466.2,-4064.98C14339.7,-4146.6 14172.4,-4193.52 14011.2,-4193.52C13756.1,-4193.52 13568.4,-4062.94 13568.4,-3828.31L13568.4,-3824.23C13568.4,-3601.83 13741.9,-3528.38 13960.2,-3471.25C14076.5,-3438.61 14137.7,-3420.25 14137.7,-3377.4L14137.7,-3373.32C14137.7,-3334.55 14107.1,-3314.15 14039.8,-3314.15C13925.5,-3314.15 13786.8,-3357 13660.3,-3440.65L13515.4,-3206.01C13668.4,-3095.84 13852,-3042.79 14037.7,-3042.79Z" style="fill:rgb(1,66,67);fill-rule:nonzero;"/>
                </g>
                <g transform="matrix(0.0234599,0,0,0.0488748,-17.8606,453.474)">
                    <path d="M14943.6,-3042.79C15088.5,-3042.79 15192.5,-3097.88 15268,-3181.53L15268,-3067.27L15651.6,-3067.27L15651.6,-3701.81C15651.6,-3856.87 15616.9,-3971.13 15533.3,-4052.74C15445.5,-4140.48 15310.9,-4187.4 15113,-4187.4C14923.2,-4187.4 14790.6,-4152.72 14666.1,-4101.71L14745.7,-3828.31C14843.6,-3867.07 14933.4,-3889.52 15049.7,-3889.52C15198.6,-3889.52 15270.1,-3824.23 15270.1,-3709.97L15270.1,-3691.61C15206.8,-3714.05 15106.8,-3734.45 15004.8,-3734.45C14745.7,-3734.45 14572.3,-3616.12 14572.3,-3387.6L14572.3,-3383.52C14572.3,-3163.17 14733.5,-3042.79 14943.6,-3042.79ZM15082.4,-3285.59C15002.8,-3285.59 14945.7,-3330.47 14945.7,-3405.96L14945.7,-3410.04C14945.7,-3491.66 15010.9,-3546.74 15123.2,-3546.74C15180.3,-3546.74 15235.4,-3534.5 15274.1,-3518.18L15274.1,-3467.17C15274.1,-3357 15194.6,-3285.59 15082.4,-3285.59Z" style="fill:rgb(1,66,67);fill-rule:nonzero;"/>
                </g>
            </g>
            <g transform="matrix(0.0473768,0,0,0.0473768,3284.44,1242.04)">
                <path d="M6020.1,-587.476C6171.49,-587.476 6300.03,-621.753 6397.15,-676.025L6397.15,-1101.63C6331.45,-1070.21 6262.9,-1050.22 6191.49,-1050.22C6091.51,-1050.22 6042.95,-1095.92 6042.95,-1204.47L6042.95,-1727.19L6402.86,-1727.19L6402.86,-2164.23L6042.95,-2164.23L6042.95,-2555.56L5500.23,-2555.56L5500.23,-2164.23L5317.42,-2164.23L5317.42,-1727.19L5500.23,-1727.19L5500.23,-1098.78C5500.23,-730.298 5694.47,-587.476 6020.1,-587.476Z" style="fill:rgb(1,66,67);fill-rule:nonzero;"/>
            </g>
            <g transform="matrix(0.0473768,0,0,0.0473768,3284.44,1242.04)">
                <path d="M7122.69,-584.619C7342.63,-584.619 7485.45,-701.733 7585.43,-830.273L7585.43,-618.897L8128.15,-618.897L8128.15,-2164.23L7585.43,-2164.23L7585.43,-1327.29C7585.43,-1158.76 7488.31,-1067.36 7359.77,-1067.36C7228.37,-1067.36 7139.82,-1158.76 7139.82,-1327.29L7139.82,-2164.23L6597.1,-2164.23L6597.1,-1153.05C6597.1,-801.709 6794.19,-584.619 7122.69,-584.619Z" style="fill:rgb(1,66,67);fill-rule:nonzero;"/>
            </g>
            <g transform="matrix(0.0473768,0,0,0.0473768,3284.44,1242.04)">
                <path d="M9653.49,-607.471L10147.7,-607.471L10764.6,-2164.23L10201.9,-2164.23L9904.85,-1261.6L9607.79,-2164.23L9036.5,-2164.23L9653.49,-607.471Z" style="fill:rgb(1,66,67);fill-rule:nonzero;"/>
            </g>
            <g transform="matrix(0.0473768,0,0,0.0473768,3284.44,1242.04)">
                <rect x="10921.7" y="-2164.23" width="542.723" height="1545.33" style="fill:rgb(1,66,67);fill-rule:nonzero;"/>
            </g>
            <g transform="matrix(0.0473768,0,0,0.0473768,3284.44,1242.04)">
                <path d="M12181.4,-584.619C12384.2,-584.619 12529.9,-661.743 12635.6,-778.857L12635.6,-618.897L13172.6,-618.897L13172.6,-1507.25C13172.6,-1724.34 13124.1,-1884.3 13006.9,-1998.56C12884.1,-2121.38 12695.6,-2187.08 12418.5,-2187.08C12152.9,-2187.08 11967.2,-2138.52 11793,-2067.11L11904.4,-1684.35C12041.5,-1738.62 12167.2,-1770.04 12330,-1770.04C12538.5,-1770.04 12638.5,-1678.63 12638.5,-1518.67L12638.5,-1492.97C12549.9,-1524.39 12410,-1552.95 12267.1,-1552.95C11904.4,-1552.95 11661.6,-1387.28 11661.6,-1067.36L11661.6,-1061.64C11661.6,-753.149 11887.2,-584.619 12181.4,-584.619ZM12375.7,-924.535C12264.3,-924.535 12184.3,-987.377 12184.3,-1093.07L12184.3,-1098.78C12184.3,-1213.04 12275.7,-1290.16 12432.8,-1290.16C12512.8,-1290.16 12589.9,-1273.02 12644.2,-1250.17L12644.2,-1178.76C12644.2,-1024.51 12532.8,-924.535 12375.7,-924.535Z" style="fill:rgb(1,66,67);fill-rule:nonzero;"/>
            </g>
            <g transform="matrix(0.0473768,0,0,0.0473768,3284.44,1242.04)">
                <path d="M13424,-153.297C13775.3,-153.297 13975.3,-296.119 13975.3,-687.451L13975.3,-2164.23L13432.6,-2164.23L13432.6,-710.303C13432.6,-576.05 13378.3,-530.347 13272.6,-530.347C13249.7,-530.347 13224,-530.347 13201.2,-533.204L13201.2,-173.292C13266.9,-164.723 13338.3,-153.297 13424,-153.297Z" style="fill:rgb(1,66,67);fill-rule:nonzero;"/>
            </g>
            <g transform="matrix(0.0473768,0,0,0.0473768,3284.44,1242.04)">
                <path d="M15020.7,-581.763C15329.2,-581.763 15543.5,-707.446 15692,-895.971L15392.1,-1144.48C15280.7,-1035.94 15177.8,-987.377 15049.3,-987.377C14880.8,-987.377 14757.9,-1073.07 14715.1,-1241.6L15749.1,-1241.6C15752,-1278.73 15752,-1318.72 15752,-1353C15752,-1807.17 15506.3,-2198.51 14972.2,-2198.51C14515.1,-2198.51 14192.4,-1841.45 14192.4,-1390.13L14192.4,-1384.42C14192.4,-904.54 14535.1,-581.763 15020.7,-581.763ZM14706.5,-1518.67C14735.1,-1687.2 14832.2,-1798.61 14975,-1798.61C15123.6,-1798.61 15223.5,-1690.06 15243.5,-1518.67L14706.5,-1518.67Z" style="fill:rgb(1,66,67);fill-rule:nonzero;"/>
            </g>
            <g transform="matrix(1.65349,0,0,1.80051,571.049,636.426)">
                <rect x="1953.57" y="264.172" width="16.261" height="11.523" style="fill:rgb(0,176,2);"/>
            </g>
            <g transform="matrix(1.65349,0,0,1.80051,689.918,636.426)">
                <rect x="1953.57" y="264.172" width="16.261" height="11.523" style="fill:rgb(0,176,2);"/>
            </g>
            <g transform="matrix(0.0193762,0,0,0.0193762,3580.4,1331.77)">
                <rect x="-2267.04" y="-4457.4" width="230.419" height="1390.13" style="fill:rgb(1,66,67);fill-rule:nonzero;"/>
                <path d="M-1446.29,-3046.32C-1292.04,-3046.32 -1187.3,-3111.07 -1118.75,-3192.95L-1118.75,-3067.27L-894.042,-3067.27L-894.042,-3663.32C-894.042,-3794.71 -928.32,-3901.35 -1002.59,-3973.71C-1073.05,-4046.08 -1185.4,-4086.07 -1335.84,-4086.07C-1495.8,-4086.07 -1604.34,-4053.7 -1714.79,-4004.18L-1653.86,-3823.28C-1562.45,-3861.36 -1478.66,-3886.12 -1366.31,-3886.12C-1204.44,-3886.12 -1116.85,-3809.95 -1116.85,-3667.12L-1116.85,-3642.37C-1194.92,-3667.12 -1274.9,-3684.26 -1387.25,-3684.26C-1632.91,-3684.26 -1802.39,-3577.62 -1802.39,-3360.53L-1802.39,-3356.72C-1802.39,-3154.87 -1634.81,-3046.32 -1446.29,-3046.32ZM-1381.54,-3213.9C-1491.99,-3213.9 -1577.68,-3269.13 -1577.68,-3366.24L-1577.68,-3370.05C-1577.68,-3474.79 -1490.09,-3537.63 -1341.55,-3537.63C-1250.14,-3537.63 -1172.07,-3520.49 -1113.04,-3497.64L-1113.04,-3429.09C-1113.04,-3301.5 -1229.2,-3213.9 -1381.54,-3213.9Z" style="fill:rgb(1,66,67);fill-rule:nonzero;"/>
                <path d="M298.044,-3048.23C507.516,-3048.23 671.285,-3152.97 671.285,-3364.34L671.285,-3368.15C671.285,-3549.06 505.612,-3615.71 358.981,-3661.41C240.915,-3699.5 132.371,-3729.97 132.371,-3804.23L132.371,-3808.04C132.371,-3865.17 183.787,-3907.06 273.288,-3907.06C357.077,-3907.06 459.909,-3870.88 557.028,-3811.85L648.434,-3975.62C541.793,-4046.08 404.684,-4089.88 279.001,-4089.88C79.051,-4089.88 -79.006,-3973.71 -79.006,-3783.28L-79.006,-3779.48C-79.006,-3587.14 86.668,-3526.21 235.202,-3484.31C353.269,-3448.13 459.909,-3421.47 459.909,-3343.39L459.909,-3339.59C459.909,-3272.93 402.78,-3231.04 303.757,-3231.04C200.925,-3231.04 84.763,-3272.93 -25.685,-3354.82L-128.517,-3198.67C-2.834,-3099.64 155.222,-3048.23 298.044,-3048.23Z" style="fill:rgb(1,66,67);fill-rule:nonzero;"/>
                <path d="M1385.39,-3044.42C1695.79,-3044.42 1924.31,-3282.46 1924.31,-3568.1L1924.31,-3571.91C1924.31,-3859.46 1697.7,-4093.68 1389.2,-4093.68C1080.71,-4093.68 852.193,-3855.65 852.193,-3568.1L852.193,-3564.29C852.193,-3278.65 1078.8,-3044.42 1385.39,-3044.42ZM1389.2,-3246.28C1210.2,-3246.28 1082.61,-3392.91 1082.61,-3568.1L1082.61,-3571.91C1082.61,-3747.1 1200.68,-3891.83 1385.39,-3891.83C1566.3,-3891.83 1693.89,-3745.2 1693.89,-3568.1L1693.89,-3564.29C1693.89,-3391 1575.82,-3246.28 1389.2,-3246.28Z" style="fill:rgb(1,66,67);fill-rule:nonzero;"/>
                <path d="M2503.21,-3048.23C2712.69,-3048.23 2876.45,-3152.97 2876.45,-3364.34L2876.45,-3368.15C2876.45,-3549.06 2710.78,-3615.71 2564.15,-3661.41C2446.09,-3699.5 2337.54,-3729.97 2337.54,-3804.23L2337.54,-3808.04C2337.54,-3865.17 2388.96,-3907.06 2478.46,-3907.06C2562.25,-3907.06 2665.08,-3870.88 2762.2,-3811.85L2853.6,-3975.62C2746.96,-4046.08 2609.85,-4089.88 2484.17,-4089.88C2284.22,-4089.88 2126.16,-3973.71 2126.16,-3783.28L2126.16,-3779.48C2126.16,-3587.14 2291.84,-3526.21 2440.37,-3484.31C2558.44,-3448.13 2665.08,-3421.47 2665.08,-3343.39L2665.08,-3339.59C2665.08,-3272.93 2607.95,-3231.04 2508.93,-3231.04C2406.1,-3231.04 2289.93,-3272.93 2179.48,-3354.82L2076.65,-3198.67C2202.34,-3099.64 2360.39,-3048.23 2503.21,-3048.23Z" style="fill:rgb(1,66,67);fill-rule:nonzero;"/>
                <path d="M3430.6,-3050.13C3518.2,-3050.13 3581.04,-3069.18 3638.17,-3101.55L3638.17,-3290.07C3592.47,-3267.22 3546.77,-3255.8 3495.35,-3255.8C3417.27,-3255.8 3371.57,-3291.98 3371.57,-3381.48L3371.57,-3874.69L3641.98,-3874.69L3641.98,-4072.74L3371.57,-4072.74L3371.57,-4348.86L3141.15,-4348.86L3141.15,-4072.74L3013.56,-4072.74L3013.56,-3874.69L3141.15,-3874.69L3141.15,-3345.3C3141.15,-3124.4 3261.12,-3050.13 3430.6,-3050.13Z" style="fill:rgb(1,66,67);fill-rule:nonzero;"/>
                <path d="M4308.48,-3044.42C4493.2,-3044.42 4624.6,-3118.69 4719.81,-3232.95L4584.61,-3352.91C4504.62,-3274.84 4424.64,-3232.95 4312.29,-3232.95C4163.76,-3232.95 4047.59,-3324.35 4022.84,-3488.12L4761.7,-3488.12C4763.61,-3510.97 4765.51,-3531.92 4765.51,-3552.87C4765.51,-3842.32 4603.65,-4093.68 4283.73,-4093.68C3996.18,-4093.68 3792.42,-3857.55 3792.42,-3570.01L3792.42,-3566.2C3792.42,-3255.8 4017.13,-3044.42 4308.48,-3044.42ZM4020.93,-3640.46C4041.88,-3796.62 4140.9,-3905.16 4281.82,-3905.16C4434.17,-3905.16 4521.76,-3789 4537,-3640.46L4020.93,-3640.46Z" style="fill:rgb(1,66,67);fill-rule:nonzero;"/>
                <path d="M4997.84,-3067.27L5228.26,-3067.27L5228.26,-3634.75C5228.26,-3790.9 5321.57,-3884.21 5454.87,-3884.21C5591.98,-3884.21 5670.05,-3794.71 5670.05,-3638.56L5670.05,-3067.27L5900.47,-3067.27L5900.47,-3709.02C5900.47,-3941.34 5769.07,-4093.68 5542.46,-4093.68C5386.31,-4093.68 5293,-4011.8 5228.26,-3918.49L5228.26,-4072.74L4997.84,-4072.74L4997.84,-3067.27Z" style="fill:rgb(1,66,67);fill-rule:nonzero;"/>
                <path d="M6182.31,-4226.98L6429.86,-4226.98L6429.86,-4445.98L6182.31,-4445.98L6182.31,-4226.98ZM6191.83,-3067.27L6422.25,-3067.27L6422.25,-4072.74L6191.83,-4072.74L6191.83,-3067.27Z" style="fill:rgb(1,66,67);fill-rule:nonzero;"/>
                <path d="M7296.32,-3046.32C7534.35,-3046.32 7762.87,-3234.85 7762.87,-3568.1L7762.87,-3571.91C7762.87,-3907.06 7532.45,-4093.68 7296.32,-4093.68C7132.55,-4093.68 7027.81,-4009.9 6953.54,-3905.16L6953.54,-4457.4L6723.12,-4457.4L6723.12,-3067.27L6953.54,-3067.27L6953.54,-3223.42C7024,-3130.11 7128.74,-3046.32 7296.32,-3046.32ZM7241.09,-3246.28C7084.94,-3246.28 6947.83,-3375.77 6947.83,-3568.1L6947.83,-3571.91C6947.83,-3764.24 7084.94,-3893.73 7241.09,-3893.73C7397.24,-3893.73 7528.64,-3766.15 7528.64,-3571.91L7528.64,-3568.1C7528.64,-3370.05 7399.15,-3246.28 7241.09,-3246.28Z" style="fill:rgb(1,66,67);fill-rule:nonzero;"/>
                <path d="M8004.71,-4226.98L8252.27,-4226.98L8252.27,-4445.98L8004.71,-4445.98L8004.71,-4226.98ZM8014.23,-3067.27L8244.65,-3067.27L8244.65,-4072.74L8014.23,-4072.74L8014.23,-3067.27Z" style="fill:rgb(1,66,67);fill-rule:nonzero;"/>
                <rect x="8558.86" y="-4457.4" width="230.419" height="1390.13" style="fill:rgb(1,66,67);fill-rule:nonzero;"/>
                <path d="M9093.97,-4226.98L9341.52,-4226.98L9341.52,-4445.98L9093.97,-4445.98L9093.97,-4226.98ZM9103.49,-3067.27L9333.91,-3067.27L9333.91,-4072.74L9103.49,-4072.74L9103.49,-3067.27Z" style="fill:rgb(1,66,67);fill-rule:nonzero;"/>
                <path d="M10049.9,-3046.32C10213.7,-3046.32 10318.4,-3130.11 10392.7,-3234.85L10392.7,-3067.27L10623.1,-3067.27L10623.1,-4457.4L10392.7,-4457.4L10392.7,-3916.59C10320.3,-4011.8 10215.6,-4093.68 10049.9,-4093.68C9809.98,-4093.68 9583.37,-3905.16 9583.37,-3571.91L9583.37,-3568.1C9583.37,-3234.85 9813.79,-3046.32 10049.9,-3046.32ZM10105.1,-3246.28C9948.99,-3246.28 9815.69,-3373.86 9815.69,-3568.1L9815.69,-3571.91C9815.69,-3771.86 9947.09,-3893.73 10105.1,-3893.73C10259.4,-3893.73 10396.5,-3766.15 10396.5,-3571.91L10396.5,-3568.1C10396.5,-3375.77 10259.4,-3246.28 10105.1,-3246.28Z" style="fill:rgb(1,66,67);fill-rule:nonzero;"/>
                <path d="M11202,-3046.32C11356.3,-3046.32 11461,-3111.07 11529.6,-3192.95L11529.6,-3067.27L11754.3,-3067.27L11754.3,-3663.32C11754.3,-3794.71 11720,-3901.35 11645.7,-3973.71C11575.3,-4046.08 11462.9,-4086.07 11312.5,-4086.07C11152.5,-4086.07 11044,-4053.7 10933.5,-4004.18L10994.5,-3823.28C11085.9,-3861.36 11169.6,-3886.12 11282,-3886.12C11443.9,-3886.12 11531.5,-3809.95 11531.5,-3667.12L11531.5,-3642.37C11453.4,-3667.12 11373.4,-3684.26 11261.1,-3684.26C11015.4,-3684.26 10845.9,-3577.62 10845.9,-3360.53L10845.9,-3356.72C10845.9,-3154.87 11013.5,-3046.32 11202,-3046.32ZM11266.8,-3213.9C11156.3,-3213.9 11070.6,-3269.13 11070.6,-3366.24L11070.6,-3370.05C11070.6,-3474.79 11158.2,-3537.63 11306.8,-3537.63C11398.2,-3537.63 11476.2,-3520.49 11535.3,-3497.64L11535.3,-3429.09C11535.3,-3301.5 11419.1,-3213.9 11266.8,-3213.9Z" style="fill:rgb(1,66,67);fill-rule:nonzero;"/>
                <path d="M12445.5,-3046.32C12609.3,-3046.32 12714,-3130.11 12788.3,-3234.85L12788.3,-3067.27L13018.7,-3067.27L13018.7,-4457.4L12788.3,-4457.4L12788.3,-3916.59C12715.9,-4011.8 12611.2,-4093.68 12445.5,-4093.68C12205.6,-4093.68 11979,-3905.16 11979,-3571.91L11979,-3568.1C11979,-3234.85 12209.4,-3046.32 12445.5,-3046.32ZM12500.7,-3246.28C12344.6,-3246.28 12211.3,-3373.86 12211.3,-3568.1L12211.3,-3571.91C12211.3,-3771.86 12342.7,-3893.73 12500.7,-3893.73C12655,-3893.73 12792.1,-3766.15 12792.1,-3571.91L12792.1,-3568.1C12792.1,-3375.77 12655,-3246.28 12500.7,-3246.28Z" style="fill:rgb(1,66,67);fill-rule:nonzero;"/>
                <path d="M14340.3,-3044.42C14525,-3044.42 14656.4,-3118.69 14751.6,-3232.95L14616.4,-3352.91C14536.4,-3274.84 14456.5,-3232.95 14344.1,-3232.95C14195.6,-3232.95 14079.4,-3324.35 14054.6,-3488.12L14793.5,-3488.12C14795.4,-3510.97 14797.3,-3531.92 14797.3,-3552.87C14797.3,-3842.32 14635.5,-4093.68 14315.5,-4093.68C14028,-4093.68 13824.2,-3857.55 13824.2,-3570.01L13824.2,-3566.2C13824.2,-3255.8 14048.9,-3044.42 14340.3,-3044.42ZM14052.7,-3640.46C14073.7,-3796.62 14172.7,-3905.16 14313.6,-3905.16C14466,-3905.16 14553.6,-3789 14568.8,-3640.46L14052.7,-3640.46Z" style="fill:rgb(1,66,67);fill-rule:nonzero;"/>
                <path d="M15374.3,-3048.23C15583.8,-3048.23 15747.6,-3152.97 15747.6,-3364.34L15747.6,-3368.15C15747.6,-3549.06 15581.9,-3615.71 15435.3,-3661.41C15317.2,-3699.5 15208.6,-3729.97 15208.6,-3804.23L15208.6,-3808.04C15208.6,-3865.17 15260.1,-3907.06 15349.6,-3907.06C15433.4,-3907.06 15536.2,-3870.88 15633.3,-3811.85L15724.7,-3975.62C15618.1,-4046.08 15481,-4089.88 15355.3,-4089.88C15155.3,-4089.88 14997.3,-3973.71 14997.3,-3783.28L14997.3,-3779.48C14997.3,-3587.14 15162.9,-3526.21 15311.5,-3484.31C15429.5,-3448.13 15536.2,-3421.47 15536.2,-3343.39L15536.2,-3339.59C15536.2,-3272.93 15479.1,-3231.04 15380,-3231.04C15277.2,-3231.04 15161,-3272.93 15050.6,-3354.82L14947.8,-3198.67C15073.4,-3099.64 15231.5,-3048.23 15374.3,-3048.23Z" style="fill:rgb(1,66,67);fill-rule:nonzero;"/>
                <path d="M16555,-2762.59L16785.4,-2762.59L16785.4,-3223.42C16855.9,-3130.11 16960.6,-3046.32 17128.2,-3046.32C17366.2,-3046.32 17594.7,-3234.85 17594.7,-3568.1L17594.7,-3571.91C17594.7,-3907.06 17364.3,-4093.68 17128.2,-4093.68C16964.4,-4093.68 16859.7,-4009.9 16785.4,-3905.16L16785.4,-4072.74L16555,-4072.74L16555,-2762.59ZM17072.9,-3246.28C16916.8,-3246.28 16779.7,-3375.77 16779.7,-3568.1L16779.7,-3571.91C16779.7,-3764.24 16916.8,-3893.73 17072.9,-3893.73C17229.1,-3893.73 17360.5,-3766.15 17360.5,-3571.91L17360.5,-3568.1C17360.5,-3370.05 17231,-3246.28 17072.9,-3246.28Z" style="fill:rgb(1,66,67);fill-rule:nonzero;"/>
                <path d="M18310.7,-3044.42C18621.1,-3044.42 18849.7,-3282.46 18849.7,-3568.1L18849.7,-3571.91C18849.7,-3859.46 18623,-4093.68 18314.5,-4093.68C18006.1,-4093.68 17777.5,-3855.65 17777.5,-3568.1L17777.5,-3564.29C17777.5,-3278.65 18004.1,-3044.42 18310.7,-3044.42ZM18314.5,-3246.28C18135.5,-3246.28 18008,-3392.91 18008,-3568.1L18008,-3571.91C18008,-3747.1 18126,-3891.83 18310.7,-3891.83C18491.6,-3891.83 18619.2,-3745.2 18619.2,-3568.1L18619.2,-3564.29C18619.2,-3391 18501.2,-3246.28 18314.5,-3246.28Z" style="fill:rgb(1,66,67);fill-rule:nonzero;"/>
                <path d="M19428.6,-3048.23C19638,-3048.23 19801.8,-3152.97 19801.8,-3364.34L19801.8,-3368.15C19801.8,-3549.06 19636.1,-3615.71 19489.5,-3661.41C19371.4,-3699.5 19262.9,-3729.97 19262.9,-3804.23L19262.9,-3808.04C19262.9,-3865.17 19314.3,-3907.06 19403.8,-3907.06C19487.6,-3907.06 19590.4,-3870.88 19687.5,-3811.85L19778.9,-3975.62C19672.3,-4046.08 19535.2,-4089.88 19409.5,-4089.88C19209.6,-4089.88 19051.5,-3973.71 19051.5,-3783.28L19051.5,-3779.48C19051.5,-3587.14 19217.2,-3526.21 19365.7,-3484.31C19483.8,-3448.13 19590.4,-3421.47 19590.4,-3343.39L19590.4,-3339.59C19590.4,-3272.93 19533.3,-3231.04 19434.3,-3231.04C19331.4,-3231.04 19215.3,-3272.93 19104.8,-3354.82L19002,-3198.67C19127.7,-3099.64 19285.7,-3048.23 19428.6,-3048.23Z" style="fill:rgb(1,66,67);fill-rule:nonzero;"/>
                <path d="M20041.7,-4226.98L20289.3,-4226.98L20289.3,-4445.98L20041.7,-4445.98L20041.7,-4226.98ZM20051.3,-3067.27L20281.7,-3067.27L20281.7,-4072.74L20051.3,-4072.74L20051.3,-3067.27Z" style="fill:rgb(1,66,67);fill-rule:nonzero;"/>
                <path d="M21155.8,-3046.32C21393.8,-3046.32 21622.3,-3234.85 21622.3,-3568.1L21622.3,-3571.91C21622.3,-3907.06 21391.9,-4093.68 21155.8,-4093.68C20992,-4093.68 20887.2,-4009.9 20813,-3905.16L20813,-4457.4L20582.6,-4457.4L20582.6,-3067.27L20813,-3067.27L20813,-3223.42C20883.4,-3130.11 20988.2,-3046.32 21155.8,-3046.32ZM21100.5,-3246.28C20944.4,-3246.28 20807.3,-3375.77 20807.3,-3568.1L20807.3,-3571.91C20807.3,-3764.24 20944.4,-3893.73 21100.5,-3893.73C21256.7,-3893.73 21388.1,-3766.15 21388.1,-3571.91L21388.1,-3568.1C21388.1,-3370.05 21258.6,-3246.28 21100.5,-3246.28Z" style="fill:rgb(1,66,67);fill-rule:nonzero;"/>
                <rect x="21873.7" y="-4457.4" width="230.419" height="1390.13" style="fill:rgb(1,66,67);fill-rule:nonzero;"/>
                <path d="M22865.8,-3044.42C23050.5,-3044.42 23181.9,-3118.69 23277.1,-3232.95L23141.9,-3352.91C23061.9,-3274.84 22982,-3232.95 22869.6,-3232.95C22721.1,-3232.95 22604.9,-3324.35 22580.2,-3488.12L23319,-3488.12C23320.9,-3510.97 23322.8,-3531.92 23322.8,-3552.87C23322.8,-3842.32 23161,-4093.68 22841,-4093.68C22553.5,-4093.68 22349.7,-3857.55 22349.7,-3570.01L22349.7,-3566.2C22349.7,-3255.8 22574.4,-3044.42 22865.8,-3044.42ZM22578.3,-3640.46C22599.2,-3796.62 22698.2,-3905.16 22839.1,-3905.16C22991.5,-3905.16 23079.1,-3789 23094.3,-3640.46L22578.3,-3640.46Z" style="fill:rgb(1,66,67);fill-rule:nonzero;"/>
            </g>
            <g transform="matrix(2.52498,-4.07556e-17,-4.04159e-15,1.21199,3165.05,733.587)">
                <g transform="matrix(1.1509,-7.39557e-32,6.16298e-33,1.1188,18.5001,-129.939)">
                    <path d="M91.846,409.538C85.155,408.125 78.761,404.953 74.702,397.873L48.743,345.398C47.599,342.007 47.838,340.227 49.627,340.255L70.002,344.925C75.074,346.75 79.855,351.966 84.209,362.167L105.474,410.172L84.209,456.752C79.855,466.953 75.074,472.169 70.002,473.994L49.688,478.65C47.552,479.428 47.17,477.927 48.234,474.55L74.702,421.046C79.727,412.288 85.662,410.101 91.846,409.538Z" style="fill:rgb(0,176,2);"/>
                </g>
                <g transform="matrix(1.1509,-7.39557e-32,6.16298e-33,1.1188,18.5001,-129.939)">
                    <path d="M67.987,410.635L55.997,407.784C53.502,407.302 51.811,405.239 50.668,402.099L46.68,389.248C46.118,387.33 46.276,386.48 47.249,386.84L60.717,391.874L67.987,410.635Z" style="fill:rgb(0,176,2);"/>
                </g>
                <g transform="matrix(1.1509,-7.39557e-32,6.16298e-33,1.1188,18.5001,-129.939)">
                    <path d="M67.987,410.679L60.717,429.44L47.114,434.524C46.329,434.766 46.154,434.082 46.522,432.574L50.668,419.215C51.811,416.076 53.502,414.012 55.997,413.53L67.987,410.679Z" style="fill:rgb(0,176,2);"/>
                </g>
            </g>
        </g>
    </g>
</svg>
