<?xml version="1.0" encoding="UTF-8" standalone="no"?>
<!DOCTYPE svg PUBLIC "-//W3C//DTD SVG 1.1//EN" "http://www.w3.org/Graphics/SVG/1.1/DTD/svg11.dtd">
<svg width="100%" height="100%" viewBox="0 0 2154 353" version="1.1" xmlns="http://www.w3.org/2000/svg" xmlns:xlink="http://www.w3.org/1999/xlink" xml:space="preserve" xmlns:serif="http://www.serif.com/" style="fill-rule:evenodd;clip-rule:evenodd;stroke-linejoin:round;stroke-miterlimit:2;">
    <g transform="matrix(2.08333,0,0,2.08333,-6977.81,-2900.39)">
        <g>
            <g transform="matrix(0.0466507,0,0,0.0466507,3285.28,1650.4)">
                <path d="M5644.94,-3039.29C5901.05,-3039.29 6056,-3146.9 6163.61,-3306.16L5890.29,-3504.16C5825.72,-3428.83 5763.31,-3383.64 5666.46,-3383.64C5528.73,-3383.64 5434.03,-3497.7 5434.03,-3648.35L5434.03,-3652.66C5434.03,-3794.7 5530.88,-3910.92 5662.16,-3910.92C5761.16,-3910.92 5823.57,-3865.72 5879.53,-3788.24L6157.16,-3994.85C6058.16,-4151.96 5898.9,-4255.26 5660.01,-4255.26C5291.99,-4255.26 5035.88,-3977.63 5035.88,-3648.35L5035.88,-3644.05C5035.88,-3314.77 5294.14,-3039.29 5644.94,-3039.29Z" style="fill:rgb(1,66,67);fill-rule:nonzero;"/>
                <path d="M6787.74,-3039.29C7162.21,-3039.29 7433.38,-3316.92 7433.38,-3648.35L7433.38,-3652.66C7433.38,-3984.09 7164.36,-4257.41 6792.04,-4257.41C6417.57,-4257.41 6146.4,-3979.79 6146.4,-3648.35L6146.4,-3644.05C6146.4,-3312.62 6415.41,-3039.29 6787.74,-3039.29ZM6792.04,-3385.79C6647.85,-3385.79 6544.54,-3506.31 6544.54,-3648.35L6544.54,-3652.66C6544.54,-3792.55 6639.24,-3910.92 6787.74,-3910.92C6931.93,-3910.92 7035.23,-3790.39 7035.23,-3648.35L7035.23,-3644.05C7035.23,-3504.16 6940.54,-3385.79 6792.04,-3385.79Z" style="fill:rgb(1,66,67);fill-rule:nonzero;"/>
                <path d="M7523.77,-3067.27L7932.68,-3067.27L7932.68,-3700.01C7932.68,-3826.98 8001.55,-3893.7 8098.4,-3893.7C8195.25,-3893.7 8257.66,-3826.98 8257.66,-3700.01L8257.66,-3067.27L8666.57,-3067.27L8666.57,-3700.01C8666.57,-3826.98 8737.59,-3893.7 8834.43,-3893.7C8931.28,-3893.7 8993.69,-3826.98 8993.69,-3700.01L8993.69,-3067.27L9402.6,-3067.27L9402.6,-3831.29C9402.6,-4102.46 9251.95,-4257.41 9004.45,-4257.41C8834.43,-4257.41 8716.07,-4184.24 8614.92,-4068.02C8552.5,-4188.54 8434.13,-4257.41 8279.18,-4257.41C8115.61,-4257.41 8008.01,-4169.17 7932.68,-4072.33L7932.68,-4231.59L7523.77,-4231.59L7523.77,-3067.27Z" style="fill:rgb(1,66,67);fill-rule:nonzero;"/>
                <path d="M9531.73,-2722.93L9940.64,-2722.93L9940.64,-3209.31C10016,-3121.08 10119.3,-3041.45 10295.7,-3041.45C10571.2,-3041.45 10810.1,-3271.73 10810.1,-3650.51L10810.1,-3654.81C10810.1,-4027.13 10571.2,-4257.41 10293.6,-4257.41C10119.3,-4257.41 10020.3,-4173.48 9940.64,-4076.63L9940.64,-4231.59L9531.73,-4231.59L9531.73,-2722.93ZM10168.8,-3383.64C10037.5,-3383.64 9932.03,-3493.4 9932.03,-3648.35L9932.03,-3652.66C9932.03,-3805.46 10037.5,-3915.22 10168.8,-3915.22C10302.2,-3915.22 10407.7,-3805.46 10407.7,-3652.66L10407.7,-3648.35C10407.7,-3491.25 10302.2,-3383.64 10168.8,-3383.64Z" style="fill:rgb(1,66,67);fill-rule:nonzero;"/>
                <path d="M11481.6,-3039.29C11714,-3039.29 11875.4,-3133.99 11987.3,-3276.03L11761.4,-3463.27C11677.4,-3381.49 11600,-3344.9 11503.1,-3344.9C11376.1,-3344.9 11283.6,-3409.46 11251.3,-3536.44L12030.4,-3536.44C12032.5,-3564.42 12032.5,-3594.55 12032.5,-3620.38C12032.5,-3962.57 11847.5,-4257.41 11445,-4257.41C11100.7,-4257.41 10857.5,-3988.39 10857.5,-3648.35L10857.5,-3644.05C10857.5,-3282.49 11115.7,-3039.29 11481.6,-3039.29ZM11244.8,-3745.2C11266.4,-3872.18 11339.5,-3956.11 11447.1,-3956.11C11559.1,-3956.11 11634.4,-3874.33 11649.5,-3745.2L11244.8,-3745.2Z" style="fill:rgb(1,66,67);fill-rule:nonzero;"/>
                <path d="M12125.1,-3067.27L12534,-3067.27L12534,-3697.85C12534,-3824.83 12607.2,-3893.7 12706.2,-3893.7C12803,-3893.7 12869.7,-3824.83 12869.7,-3697.85L12869.7,-3067.27L13278.6,-3067.27L13278.6,-3829.13C13278.6,-4093.85 13130.1,-4257.41 12882.6,-4257.41C12716.9,-4257.41 12609.3,-4164.87 12534,-4068.02L12534,-4231.59L12125.1,-4231.59L12125.1,-3067.27Z" style="fill:rgb(1,66,67);fill-rule:nonzero;"/>
                <path d="M13870.5,-3041.45C14154.6,-3041.45 14346.1,-3174.88 14346.1,-3430.99L14346.1,-3435.29C14346.1,-3661.27 14163.2,-3740.9 13932.9,-3805.46C13810.2,-3842.05 13743.5,-3863.57 13743.5,-3908.76L13743.5,-3913.07C13743.5,-3945.35 13775.8,-3969.02 13838.2,-3969.02C13930.7,-3969.02 14062,-3928.13 14182.5,-3861.42L14322.4,-4119.68C14189,-4205.76 14012.5,-4255.26 13842.5,-4255.26C13573.5,-4255.26 13375.5,-4117.52 13375.5,-3870.03L13375.5,-3865.72C13375.5,-3631.14 13558.4,-3553.66 13788.7,-3493.4C13911.4,-3458.96 13975.9,-3439.59 13975.9,-3394.4L13975.9,-3390.1C13975.9,-3349.2 13943.6,-3327.68 13872.6,-3327.68C13752.1,-3327.68 13605.8,-3372.88 13472.3,-3461.12L13319.5,-3213.62C13480.9,-3097.4 13674.6,-3041.45 13870.5,-3041.45Z" style="fill:rgb(1,66,67);fill-rule:nonzero;"/>
                <path d="M14765.8,-3041.45C14918.6,-3041.45 15028.3,-3099.55 15108,-3187.79L15108,-3067.27L15512.6,-3067.27L15512.6,-3736.59C15512.6,-3900.16 15476,-4020.68 15387.7,-4106.76C15295.2,-4199.3 15153.2,-4248.8 14944.4,-4248.8C14744.2,-4248.8 14604.4,-4212.22 14473.1,-4158.41L14557,-3870.03C14660.3,-3910.92 14755,-3934.59 14877.7,-3934.59C15034.8,-3934.59 15110.1,-3865.72 15110.1,-3745.2L15110.1,-3725.83C15043.4,-3749.5 14937.9,-3771.03 14830.3,-3771.03C14557,-3771.03 14374.1,-3646.2 14374.1,-3405.16L14374.1,-3400.86C14374.1,-3168.42 14544.1,-3041.45 14765.8,-3041.45ZM14912.1,-3297.55C14828.2,-3297.55 14767.9,-3344.9 14767.9,-3424.53L14767.9,-3428.83C14767.9,-3514.92 14836.8,-3573.03 14955.2,-3573.03C15015.4,-3573.03 15073.5,-3560.12 15114.4,-3542.9L15114.4,-3489.09C15114.4,-3372.88 15030.5,-3297.55 14912.1,-3297.55Z" style="fill:rgb(1,66,67);fill-rule:nonzero;"/>
                <path d="M16616.6,-3043.6C16730.7,-3043.6 16827.5,-3069.42 16900.7,-3110.32L16900.7,-3430.99C16851.2,-3407.31 16799.6,-3392.25 16745.8,-3392.25C16670.4,-3392.25 16633.8,-3426.68 16633.8,-3508.46L16633.8,-3902.31L16905,-3902.31L16905,-4231.59L16633.8,-4231.59L16633.8,-4526.43L16224.9,-4526.43L16224.9,-4231.59L16087.2,-4231.59L16087.2,-3902.31L16224.9,-3902.31L16224.9,-3428.83C16224.9,-3151.21 16371.3,-3043.6 16616.6,-3043.6Z" style="fill:rgb(1,66,67);fill-rule:nonzero;"/>
                <path d="M17387.1,-3041.45C17552.8,-3041.45 17660.4,-3129.68 17735.7,-3226.53L17735.7,-3067.27L18144.7,-3067.27L18144.7,-4231.59L17735.7,-4231.59L17735.7,-3601.01C17735.7,-3474.03 17662.6,-3405.16 17565.7,-3405.16C17466.7,-3405.16 17400,-3474.03 17400,-3601.01L17400,-4231.59L16991.1,-4231.59L16991.1,-3469.72C16991.1,-3205.01 17139.6,-3041.45 17387.1,-3041.45Z" style="fill:rgb(1,66,67);fill-rule:nonzero;"/>
                <path d="M19173.4,-3058.66L19545.7,-3058.66L20010.6,-4231.59L19586.6,-4231.59L19362.8,-3551.51L19138.9,-4231.59L18708.5,-4231.59L19173.4,-3058.66Z" style="fill:rgb(1,66,67);fill-rule:nonzero;"/>
                <rect x="20068.7" y="-4231.59" width="408.909" height="1164.32" style="fill:rgb(1,66,67);fill-rule:nonzero;"/>
                <path d="M20957.5,-3041.45C21110.3,-3041.45 21220.1,-3099.55 21299.7,-3187.79L21299.7,-3067.27L21704.3,-3067.27L21704.3,-3736.59C21704.3,-3900.16 21667.7,-4020.68 21579.5,-4106.76C21486.9,-4199.3 21344.9,-4248.8 21136.1,-4248.8C20936,-4248.8 20796.1,-4212.22 20664.8,-4158.41L20748.8,-3870.03C20852.1,-3910.92 20946.8,-3934.59 21069.4,-3934.59C21226.5,-3934.59 21301.9,-3865.72 21301.9,-3745.2L21301.9,-3725.83C21235.1,-3749.5 21129.7,-3771.03 21022.1,-3771.03C20748.8,-3771.03 20565.8,-3646.2 20565.8,-3405.16L20565.8,-3400.86C20565.8,-3168.42 20735.8,-3041.45 20957.5,-3041.45ZM21103.9,-3297.55C21019.9,-3297.55 20959.7,-3344.9 20959.7,-3424.53L20959.7,-3428.83C20959.7,-3514.92 21028.5,-3573.03 21146.9,-3573.03C21207.2,-3573.03 21265.3,-3560.12 21306.2,-3542.9L21306.2,-3489.09C21306.2,-3372.88 21222.2,-3297.55 21103.9,-3297.55Z" style="fill:rgb(1,66,67);fill-rule:nonzero;"/>
                <path d="M21833.4,-2716.47C22098.2,-2716.47 22248.8,-2824.08 22248.8,-3118.92L22248.8,-4231.59L21839.9,-4231.59L21839.9,-3136.14C21839.9,-3034.99 21799,-3000.55 21719.4,-3000.55C21702.2,-3000.55 21682.8,-3000.55 21665.6,-3002.71L21665.6,-2731.54C21715.1,-2725.08 21768.9,-2716.47 21833.4,-2716.47Z" style="fill:rgb(1,66,67);fill-rule:nonzero;"/>
                <path d="M22976.2,-3039.29C23208.7,-3039.29 23370.1,-3133.99 23482,-3276.03L23256,-3463.27C23172.1,-3381.49 23094.6,-3344.9 22997.8,-3344.9C22870.8,-3344.9 22778.2,-3409.46 22746,-3536.44L23525,-3536.44C23527.2,-3564.42 23527.2,-3594.55 23527.2,-3620.38C23527.2,-3962.57 23342.1,-4257.41 22939.7,-4257.41C22595.3,-4257.41 22352.1,-3988.39 22352.1,-3648.35L22352.1,-3644.05C22352.1,-3282.49 22610.4,-3039.29 22976.2,-3039.29ZM22739.5,-3745.2C22761,-3872.18 22834.2,-3956.11 22941.8,-3956.11C23053.7,-3956.11 23129,-3874.33 23144.1,-3745.2L22739.5,-3745.2Z" style="fill:rgb(1,66,67);fill-rule:nonzero;"/>
            </g>
            <g transform="matrix(1.23923,0,0,1.25762,1800.07,1101.59)">
                <rect x="1953.57" y="264.172" width="16.261" height="11.523" style="fill:rgb(0,176,2);"/>
            </g>
            <g transform="matrix(1.23923,0,0,1.25762,1882.47,1101.59)">
                <rect x="1953.57" y="264.172" width="16.261" height="11.523" style="fill:rgb(0,176,2);"/>
            </g>
            <g transform="matrix(2.27323,-2.20153e-17,-3.66157e-15,1.09115,3187.58,1118.6)">
                <g transform="matrix(1.1509,-7.39557e-32,6.16298e-33,1.1188,18.5001,-129.939)">
                    <path d="M91.846,409.538C85.155,408.125 78.761,404.953 74.702,397.873L48.743,345.398C47.599,342.007 47.838,340.227 49.627,340.255L70.002,344.925C75.074,346.75 79.855,351.966 84.209,362.167L105.474,410.172L84.209,456.752C79.855,466.953 75.074,472.169 70.002,473.994L49.688,478.65C47.552,479.428 47.17,477.927 48.234,474.55L74.702,421.046C79.727,412.288 85.662,410.101 91.846,409.538Z" style="fill:rgb(0,176,2);"/>
                </g>
                <g transform="matrix(1.1509,-7.39557e-32,6.16298e-33,1.1188,18.5001,-129.939)">
                    <path d="M67.987,410.635L55.997,407.784C53.502,407.302 51.811,405.239 50.668,402.099L45.76,386.284L60.717,391.874L67.987,410.635Z" style="fill:rgb(0,176,2);"/>
                </g>
                <g transform="matrix(1.1509,-7.39557e-32,6.16298e-33,1.1188,18.5001,-129.939)">
                    <path d="M67.987,410.679L60.717,429.44L45.76,435.03L50.668,419.215C51.811,416.076 53.502,414.012 55.997,413.53L67.987,410.679Z" style="fill:rgb(0,176,2);"/>
                </g>
            </g>
        </g>
    </g>
</svg>
